<?xml version="1.0" encoding="UTF-8"?>
<svg width="66px" height="103px" viewBox="0 0 66 103" version="1.1" xmlns="http://www.w3.org/2000/svg" xmlns:xlink="http://www.w3.org/1999/xlink">
    <!-- Generator: Sketch 45.2 (43514) - http://www.bohemiancoding.com/sketch -->
    <title>logo</title>
    <desc>Created with Sketch.</desc>
    <defs>
        <path d="M24.7299073,27.5472094 C24.7299073,28.4916444 25.5973488,31.517995 26.6723074,31.517995 C27.7467041,31.517995 28.616253,30.7618288 28.616253,29.8165509 C28.616253,28.8788599 27.7467041,28.1121563 26.6723074,28.1121563 C25.5973488,28.1121563 24.7299073,26.6086754 24.7299073,27.5472094 Z" id="path-1"></path>
        <polygon id="path-2" points="34.0918964 33.2782661 43.3550022 32.7596839 52.463278 42.5417934 45.1501593 41.361882 39.6687273 41.0450565"></polygon>
    </defs>
    <g id="Layouts" stroke="none" stroke-width="1" fill="none" fill-rule="evenodd">
        <g id="Tablet-Portrait" transform="translate(-92.000000, -32.000000)">
            <g id="logo" transform="translate(94.000000, 32.000000)">
                <g id="logo-squares" transform="translate(10.000000, 93.000000)">
                    <rect id="Rectangle" fill="#ED2880" x="32" y="0" width="10" height="10"></rect>
                    <rect id="Rectangle" fill="#36B6BE" x="16" y="0" width="10" height="10"></rect>
                    <rect id="Rectangle" fill="#2D0E11" x="0" y="0" width="10" height="10"></rect>
                </g>
                <g id="logo-penguin">
                    <polygon id="Stroke-1" stroke-opacity="0.84" stroke="#6E222A" stroke-width="2" fill="#FFFCF4" points="22.5362527 20.3689417 31.8750875 14.6929184 44.2480005 28.8358391 42.7453626 44.178903 47.7915283 49.5896639 61.2576648 70.6530084 48.1114448 66.4907225 54.7512919 81.743305 43.0651385 84.0000016 23.8417704 84.3393069 5.22479632 80.7405629 10.5265299 58.6687159 0.0603303145 77.1194795 4.48183706 52.4273243 11.2900021 39.6057977 16.780426 36.2567206"></polygon>
                    <polygon id="Fill-3" fill="#FFFCF4" points="34.0918964 33.2782661 43.3550022 32.7596839 52.463278 42.5417934 45.1501593 41.361882 39.6687273 41.0450565"></polygon>
                    <polygon id="Stroke-5" stroke-opacity="0.84" stroke="#541A20" stroke-width="1.5" fill="#FFFCF4" points="19.7380023 84.6321913 32.9803237 84.5065851 43.0652088 82.6040868 38.5259217 58.0590958 37.006185 49.8415226 39.3140233 43.0357461 32.5027673 45.3057901 24.3452489 33.9566941"></polygon>
                    <polygon id="Fill-6" fill="#FFFCF4" points="33.7992368 17.4435115 24.0183918 0.171113857 28.7211777 16.4115456 16.4529366 5.49743482 24.919834 19.1823284 9.51593395 17.8470249 30.710645 22.6719046 40.7847117 32.5348011"></polygon>
                    <g id="Group-11" transform="translate(9.413440, 0.135722)">
                        <g id="Stroke-9">
                            <use fill="#FFFCF4" fill-rule="evenodd" xlink:href="#path-1"></use>
                            <path stroke-opacity="0.84" stroke="#2D0E11" stroke-width="1" d="M24.2299073,27.5472094 C24.2299073,26.9666633 24.5925392,26.5686831 25.1499567,26.7982171 C25.2629592,26.8447494 25.3661948,26.9097488 25.5172105,27.0187073 C25.5162712,27.0180296 25.7772942,27.2102276 25.8564833,27.2654898 C26.191409,27.4992181 26.4468661,27.6121563 26.6723074,27.6121563 C28.0077566,27.6121563 29.116253,28.585751 29.116253,29.8165509 C29.116253,31.052444 28.0108815,32.017995 26.6723074,32.017995 C25.3704454,32.017995 24.2299073,29.1777991 24.2299073,27.5472094 Z"></path>
                        </g>
                        <polygon id="Stroke-7" stroke-opacity="0.84" stroke="#541A20" fill-opacity="0.84" fill="#FFFCF4" stroke-linecap="square" points="24.3857969 17.3077894 14.6049519 0.0353917239 19.3077379 16.2758235 7.03949677 5.36171269 15.5063942 19.0466063 0.102494095 17.7113028 21.2972052 22.5361825 31.3712718 32.3990789"></polygon>
                    </g>
                    <g id="Stroke-4">
                        <use fill="#FFFCF4" fill-rule="evenodd" xlink:href="#path-2"></use>
                        <path stroke-opacity="0.84" stroke="#541A20" stroke-width="1" d="M35.0293363,33.7265678 L39.9358196,40.5597725 L45.2298002,40.8682654 L51.1043665,41.8160783 L43.1488486,33.2720081 L35.0293363,33.7265678 Z"></path>
                    </g>
                </g>
            </g>
        </g>
    </g>
</svg>