<svg xmlns="http://www.w3.org/2000/svg" viewBox="0 0 62.85 103.08"><defs><style>.cls-1,.cls-2,.cls-4{fill:#fffcf4;}.cls-1,.cls-3,.cls-4{stroke:#2d0e11;}.cls-3{fill:none;}.cls-4,.cls-7{fill-opacity:0.84;}.cls-4{stroke-linecap:square;}.cls-5{fill:#ed2880;}.cls-6{fill:#36b6be;}.cls-7{fill:#541a20;}</style></defs><title>Asset 50</title><g id="Layer_2" data-name="Layer 2"><g id="Layer_1-2" data-name="Layer 1"><g id="Layouts"><g id="Tablet-Portrait"><g id="logo"><g id="logo-penguin"><polygon id="Stroke-1" class="cls-1" points="22.97 20.44 32.31 14.77 44.68 28.91 43.18 44.25 48.22 49.66 61.69 70.73 48.54 66.57 55.18 81.82 43.5 84.08 24.27 84.42 5.66 80.82 10.96 58.74 0.49 77.19 4.91 52.5 11.72 39.68 17.21 36.33 22.97 20.44"/><polygon id="Fill-3" class="cls-2" points="34.52 33.35 43.79 32.84 52.9 42.62 45.58 41.44 40.1 41.12 34.52 33.35"/><polygon id="Stroke-5" class="cls-1" points="20.17 84.71 33.41 84.58 43.5 82.68 38.96 58.13 37.44 49.92 39.75 43.11 32.94 45.38 24.78 34.03 20.17 84.71"/><polygon id="Fill-6" class="cls-2" points="34.23 17.52 24.45 0.25 29.15 16.49 16.89 5.57 25.35 19.26 9.95 17.92 31.14 22.75 41.22 32.61 34.23 17.52"/><g id="Group-11"><g id="Stroke-9"><path id="path-1" class="cls-2" d="M34.58,27.76c0,.94.87,4,1.94,4a1.72,1.72,0,1,0,0-3.41C35.44,28.32,34.58,26.82,34.58,27.76Z"/><path class="cls-3" d="M34.08,27.76c0-.58.36-1,.92-.75a1.78,1.78,0,0,1,.37.22l.34.25a1.51,1.51,0,0,0,.82.35,2.21,2.21,0,1,1,0,4.41C35.22,32.23,34.08,29.39,34.08,27.76Z"/></g><polygon id="Stroke-7" class="cls-4" points="34.23 17.52 24.45 0.25 29.15 16.49 16.89 5.57 25.35 19.26 9.95 17.92 31.14 22.75 41.22 32.61 34.23 17.52"/></g><g id="Stroke-4"><polygon id="path-2" class="cls-2" points="34.52 33.35 43.79 32.84 52.9 42.62 45.58 41.44 40.1 41.12 34.52 33.35"/><path class="cls-3" d="M35.46,33.8l4.91,6.83,5.29.31,5.87.95-8-8.54Z"/></g><g id="logo-squares"><rect id="Rectangle" class="cls-5" x="42.43" y="93.08" width="10" height="10"/><rect id="Rectangle-2" data-name="Rectangle" class="cls-6" x="26.43" y="93.08" width="10" height="10"/><rect id="Rectangle-3" data-name="Rectangle" class="cls-7" x="10.43" y="93.08" width="10" height="10"/></g></g></g></g></g></g></g></svg>