<?xml version="1.0" encoding="utf-8"?>
<!-- Generator: Adobe Illustrator 18.0.0, SVG Export Plug-In . SVG Version: 6.00 Build 0)  -->
<svg version="1.2" baseProfile="tiny" id="Layer_1" xmlns="http://www.w3.org/2000/svg" xmlns:xlink="http://www.w3.org/1999/xlink"
	 x="0px" y="0px" viewBox="0 0 257 28" xml:space="preserve">
<g>
	<g>
		<circle fill="#FFDD6C" cx="2.5" cy="8.6" r="1.9"/>
		<circle fill="#FFDD6C" cx="9.1" cy="8.6" r="1.9"/>
		<circle fill="#FFDD6C" cx="15.7" cy="8.6" r="1.9"/>
		<circle fill="#FFDD6C" cx="22.4" cy="8.6" r="1.9"/>
		<circle fill="#FFDD6C" cx="6.1" cy="14.2" r="1.9"/>
		<circle fill="#FFDD6C" cx="12.8" cy="14.2" r="1.9"/>
		<circle fill="#FFDD6C" cx="19.4" cy="14.2" r="1.9"/>
		<circle fill="#FFDD6C" cx="9.5" cy="19.9" r="1.9"/>
		<circle fill="#FFDD6C" cx="16.1" cy="19.9" r="1.9"/>
		<circle fill="#FFDD6C" cx="12.8" cy="25.5" r="1.9"/>
		<circle fill="#FFDD6C" cx="6.1" cy="2.5" r="1.9"/>
		<circle fill="#FFDD6C" cx="12.8" cy="2.5" r="1.9"/>
		<circle fill="#FFDD6C" cx="19.4" cy="2.5" r="1.9"/>
	</g>
	<g>
		<path fill="#58595B" d="M40.6,6.1l0.2,0.2L45,19.5l4.1-12.6l0.2-0.2h1.3l0.2,0.2l4.1,12.6L59,6.2l0.2-0.2h1.6L61,6.2L55.8,22
			l-0.2,0.2H54L53.9,22l-4-12l-4,12l-0.2,0.2h-1.6L44,22L38.8,6.2l0.2-0.2H40.6z"/>
		<path fill="#58595B" d="M79.5,6.1l0.2,0.2V22l-0.2,0.2H78L77.9,22V6.2L78,6.1H79.5z"/>
		<path fill="#58595B" d="M100.4,6.1l0.3,0.2l9.6,13.1V6.2l0.2-0.2h1.5l0.2,0.2V22l-0.2,0.2h-1.7l-0.3-0.2l-9.5-13.1V22l-0.2,0.2
			h-1.5L98.5,22V6.2l0.2-0.2H100.4z"/>
		<path fill="#58595B" d="M140,6.1l0.2,0.2v1.5L140,7.9h-7.3v5.2h5.4l0.2,0.2v1.5l-0.2,0.2h-5.4v5.5h8.2l0.2,0.2V22l-0.2,0.2h-9.8
			L131,22V6.2l0.2-0.2H140z"/>
		<path fill="#58595B" d="M166.8,9.5c-1-1.2-2.1-2-3.6-2c-1.5,0-2.7,1.1-2.7,2.6c0,3,7.8,2.5,7.8,7.6c0,2.7-2.3,4.9-5.4,4.9
			c-2.5,0-4.5-1.2-5.7-3.7l1.3-0.9h0.3c1.1,2,2.4,2.7,4.1,2.7c2,0,3.3-1.4,3.3-3.1c0-3.4-7.8-2.9-7.8-7.6c0-2.6,2.1-4.5,4.8-4.5
			c2.3,0,3.8,1.1,5.1,2.9l-1.2,1H166.8z"/>
		<path fill="#58595B" d="M198.1,6.1l0.2,0.2v1.5l-0.2,0.2h-6V22l-0.2,0.2h-1.5l-0.2-0.2V7.9h-6.1l-0.2-0.2V6.2l0.2-0.2H198.1z"/>
		<path fill="#58595B" d="M215.8,6.1l0.3,0.2l4.9,6.7l4.9-6.7l0.3-0.2h1.9l0.2,0.2l-6.3,8.4V22l-0.2,0.2h-1.5l-0.2-0.2v-7.3
			l-6.3-8.4l0.2-0.2H215.8z"/>
		<path fill="#58595B" d="M249.2,6.1c3.4,0,5.8,2,5.8,4.9c0,2.2-1.4,3.9-3.6,4.5l5,6.5l-0.2,0.2h-2l-0.2-0.2l-4.9-6.1h-2.3V22
			l-0.2,0.2h-1.5l-0.2-0.2V6.2l0.2-0.2H249.2z M246.9,14.2h2.3c2.3,0,3.7-1.3,3.7-3.1c0-1.9-1.4-3.1-3.7-3.1h-2.3V14.2z"/>
	</g>
</g>
</svg>
